<mxfile host="app.diagrams.net" modified="2021-03-02T00:23:32.786Z" agent="5.0 (Windows NT 10.0; Win64; x64) AppleWebKit/537.36 (KHTML, like Gecko) Chrome/88.0.4324.190 Safari/537.36" etag="TOVlWcg5B-srM83TQzb5" version="14.4.2" type="github">
  <diagram id="4LhmkvDG1Y-rJ-ftEP_h" name="Page-1">
    <mxGraphModel dx="1422" dy="762" grid="1" gridSize="10" guides="1" tooltips="1" connect="1" arrows="1" fold="1" page="1" pageScale="1" pageWidth="850" pageHeight="1100" math="0" shadow="0">
      <root>
        <mxCell id="0" />
        <mxCell id="1" parent="0" />
        <mxCell id="DdXwnSEyYQ42FIH6IjHl-29" style="edgeStyle=orthogonalEdgeStyle;rounded=0;orthogonalLoop=1;jettySize=auto;html=1;exitX=0.5;exitY=1;exitDx=0;exitDy=0;entryX=0.5;entryY=0;entryDx=0;entryDy=0;endArrow=none;endFill=0;" edge="1" parent="1" source="DdXwnSEyYQ42FIH6IjHl-14" target="DdXwnSEyYQ42FIH6IjHl-28">
          <mxGeometry relative="1" as="geometry" />
        </mxCell>
        <mxCell id="DdXwnSEyYQ42FIH6IjHl-14" value="Director" style="whiteSpace=wrap;html=1;align=center;" vertex="1" parent="1">
          <mxGeometry x="130" y="140" width="100" height="40" as="geometry" />
        </mxCell>
        <mxCell id="DdXwnSEyYQ42FIH6IjHl-18" style="edgeStyle=orthogonalEdgeStyle;rounded=0;orthogonalLoop=1;jettySize=auto;html=1;exitX=0.5;exitY=1;exitDx=0;exitDy=0;entryX=0.5;entryY=0;entryDx=0;entryDy=0;endArrow=none;endFill=0;" edge="1" parent="1" source="DdXwnSEyYQ42FIH6IjHl-15" target="DdXwnSEyYQ42FIH6IjHl-14">
          <mxGeometry relative="1" as="geometry" />
        </mxCell>
        <mxCell id="DdXwnSEyYQ42FIH6IjHl-15" value="DIRNUM" style="ellipse;whiteSpace=wrap;html=1;align=center;fontStyle=4;" vertex="1" parent="1">
          <mxGeometry x="50" y="60" width="100" height="40" as="geometry" />
        </mxCell>
        <mxCell id="DdXwnSEyYQ42FIH6IjHl-19" style="edgeStyle=orthogonalEdgeStyle;rounded=0;orthogonalLoop=1;jettySize=auto;html=1;exitX=0.5;exitY=1;exitDx=0;exitDy=0;entryX=0.63;entryY=0.025;entryDx=0;entryDy=0;entryPerimeter=0;endArrow=none;endFill=0;" edge="1" parent="1" source="DdXwnSEyYQ42FIH6IjHl-16" target="DdXwnSEyYQ42FIH6IjHl-14">
          <mxGeometry relative="1" as="geometry" />
        </mxCell>
        <mxCell id="DdXwnSEyYQ42FIH6IjHl-16" value="DIRNAME" style="ellipse;whiteSpace=wrap;html=1;align=center;" vertex="1" parent="1">
          <mxGeometry x="180" y="60" width="100" height="40" as="geometry" />
        </mxCell>
        <mxCell id="DdXwnSEyYQ42FIH6IjHl-20" style="edgeStyle=orthogonalEdgeStyle;rounded=0;orthogonalLoop=1;jettySize=auto;html=1;exitX=0;exitY=0.5;exitDx=0;exitDy=0;entryX=1;entryY=0.5;entryDx=0;entryDy=0;endArrow=none;endFill=0;" edge="1" parent="1" source="DdXwnSEyYQ42FIH6IjHl-17" target="DdXwnSEyYQ42FIH6IjHl-14">
          <mxGeometry relative="1" as="geometry" />
        </mxCell>
        <mxCell id="DdXwnSEyYQ42FIH6IjHl-17" value="DIRBOB" style="ellipse;whiteSpace=wrap;html=1;align=center;" vertex="1" parent="1">
          <mxGeometry x="280" y="120" width="100" height="40" as="geometry" />
        </mxCell>
        <mxCell id="DdXwnSEyYQ42FIH6IjHl-21" value="Play" style="whiteSpace=wrap;html=1;align=center;" vertex="1" parent="1">
          <mxGeometry x="490" y="300" width="100" height="40" as="geometry" />
        </mxCell>
        <mxCell id="DdXwnSEyYQ42FIH6IjHl-22" style="edgeStyle=orthogonalEdgeStyle;rounded=0;orthogonalLoop=1;jettySize=auto;html=1;exitX=0.5;exitY=1;exitDx=0;exitDy=0;entryX=0.5;entryY=0;entryDx=0;entryDy=0;endArrow=none;endFill=0;" edge="1" parent="1" source="DdXwnSEyYQ42FIH6IjHl-23" target="DdXwnSEyYQ42FIH6IjHl-21">
          <mxGeometry relative="1" as="geometry" />
        </mxCell>
        <mxCell id="DdXwnSEyYQ42FIH6IjHl-23" value="PLAYNO" style="ellipse;whiteSpace=wrap;html=1;align=center;fontStyle=4;" vertex="1" parent="1">
          <mxGeometry x="410" y="220" width="100" height="40" as="geometry" />
        </mxCell>
        <mxCell id="DdXwnSEyYQ42FIH6IjHl-24" style="edgeStyle=orthogonalEdgeStyle;rounded=0;orthogonalLoop=1;jettySize=auto;html=1;exitX=0.5;exitY=1;exitDx=0;exitDy=0;entryX=0.63;entryY=0.025;entryDx=0;entryDy=0;entryPerimeter=0;endArrow=none;endFill=0;" edge="1" parent="1" source="DdXwnSEyYQ42FIH6IjHl-25" target="DdXwnSEyYQ42FIH6IjHl-21">
          <mxGeometry relative="1" as="geometry" />
        </mxCell>
        <mxCell id="DdXwnSEyYQ42FIH6IjHl-25" value="PLAYNAME" style="ellipse;whiteSpace=wrap;html=1;align=center;" vertex="1" parent="1">
          <mxGeometry x="540" y="220" width="100" height="40" as="geometry" />
        </mxCell>
        <mxCell id="DdXwnSEyYQ42FIH6IjHl-26" style="edgeStyle=orthogonalEdgeStyle;rounded=0;orthogonalLoop=1;jettySize=auto;html=1;exitX=0;exitY=0.5;exitDx=0;exitDy=0;entryX=1;entryY=0.5;entryDx=0;entryDy=0;endArrow=none;endFill=0;" edge="1" parent="1" source="DdXwnSEyYQ42FIH6IjHl-27" target="DdXwnSEyYQ42FIH6IjHl-21">
          <mxGeometry relative="1" as="geometry" />
        </mxCell>
        <mxCell id="DdXwnSEyYQ42FIH6IjHl-27" value="DIRNUM" style="ellipse;whiteSpace=wrap;html=1;align=center;" vertex="1" parent="1">
          <mxGeometry x="640" y="280" width="100" height="40" as="geometry" />
        </mxCell>
        <mxCell id="DdXwnSEyYQ42FIH6IjHl-30" style="edgeStyle=orthogonalEdgeStyle;rounded=0;orthogonalLoop=1;jettySize=auto;html=1;exitX=1;exitY=0.5;exitDx=0;exitDy=0;entryX=0;entryY=0.5;entryDx=0;entryDy=0;endArrow=none;endFill=0;" edge="1" parent="1" source="DdXwnSEyYQ42FIH6IjHl-28" target="DdXwnSEyYQ42FIH6IjHl-21">
          <mxGeometry relative="1" as="geometry" />
        </mxCell>
        <mxCell id="DdXwnSEyYQ42FIH6IjHl-28" value="Directs" style="shape=rhombus;perimeter=rhombusPerimeter;whiteSpace=wrap;html=1;align=center;" vertex="1" parent="1">
          <mxGeometry x="140" y="290" width="120" height="60" as="geometry" />
        </mxCell>
        <mxCell id="DdXwnSEyYQ42FIH6IjHl-31" value="[1,M]" style="text;html=1;strokeColor=none;fillColor=none;align=center;verticalAlign=middle;whiteSpace=wrap;rounded=0;" vertex="1" parent="1">
          <mxGeometry x="200" y="270" width="40" height="20" as="geometry" />
        </mxCell>
        <mxCell id="DdXwnSEyYQ42FIH6IjHl-32" value="[1,1]" style="text;html=1;strokeColor=none;fillColor=none;align=center;verticalAlign=middle;whiteSpace=wrap;rounded=0;" vertex="1" parent="1">
          <mxGeometry x="260" y="320" width="40" height="20" as="geometry" />
        </mxCell>
      </root>
    </mxGraphModel>
  </diagram>
</mxfile>
